<svg xmlns="http://www.w3.org/2000/svg" viewBox="0 0 81.93 177.44"><defs><style>.cls-1{fill:#1d1d1b;}.cls-2{fill:#f9ec86;}.cls-3{fill:#9dd3f4;}</style></defs><g id="Шар_2" data-name="Шар 2"><g id="Шар_1-2" data-name="Шар 1"><path class="cls-1" d="M40.89,61.18C40,53.82,29.16,46,29.16,46V0h-17V46S1.33,53.82.41,61.18s0,112.7,0,112.7,0,3.56,3.56,3.56H37.32a3.49,3.49,0,0,0,3.57-3.56S41.81,68.54,40.89,61.18Z"/><rect class="cls-2" x="12.14" y="9.66" width="17.02" height="17.02"/><rect class="cls-2" y="91.31" width="41.3" height="43.81"/><path class="cls-3" d="M81.93,112.52v-23H53.85v23c0,8.42,2.76,15.77,6.87,19.79.34.33,5.33,5.51,5.72,11.27v26.55c-7.07.19-12.59,1.75-12.59,3.65s6.29,3.66,14,3.66,14-1.64,14-3.66-5.52-3.46-12.59-3.65v-26.5c.37-5.87,5.57-11.17,5.75-11.35h0C79.19,128.27,81.93,120.92,81.93,112.52Z"/><path class="cls-2" d="M67.89,134.21c6.91,0,12.52-11.32,12.52-25.3h-25C55.37,122.89,61,134.21,67.89,134.21Z"/><rect class="cls-2" x="55.37" y="104.2" width="25.03" height="4.71"/></g></g></svg>