<svg xmlns="http://www.w3.org/2000/svg" viewBox="0 0 107.83 106.53"><defs><style>.cls-1,.cls-2{fill:#4c519e;}.cls-1{opacity:0.7;}</style></defs><g id="Шар_2" data-name="Шар 2"><g id="Шар_1-2" data-name="Шар 1"><path class="cls-1" d="M0,0V102.17H103.47V0ZM68.85,36.41c0,7.62-2.5,14.3-6.22,18h0c-.16.17-4.88,5-5.22,10.32V88.74c6.43.17,11.44,1.59,11.44,3.31s-5.71,3.33-12.76,3.33-12.75-1.49-12.75-3.33,5-3.14,11.44-3.31V64.67c-.34-5.34-5.06-10.15-5.23-10.32h0c-3.73-3.65-6.22-10.33-6.22-18V15.51H68.85Z"/><path class="cls-2" d="M4.36,4.36V106.53H107.83V4.36ZM68.85,36.41c0,7.62-2.5,14.3-6.22,18h0c-.16.17-4.88,5-5.22,10.32V88.74c6.43.17,11.44,1.59,11.44,3.31s-5.71,3.33-12.76,3.33-12.75-1.49-12.75-3.33,5-3.14,11.44-3.31V64.67c-.34-5.34-5.06-10.15-5.23-10.32h0c-3.73-3.65-6.22-10.33-6.22-18V15.51H68.85Z"/></g></g></svg>